<svg width="35" height="35" viewBox="0 0 35 35" fill="none" xmlns="http://www.w3.org/2000/svg">
<path d="M24.2448 14.1276H30.9895M29.5312 4.01041H5.46871C5.08194 4.01041 4.711 4.16405 4.43751 4.43754C4.16402 4.71103 4.01038 5.08197 4.01038 5.46874V29.5312C4.01038 29.918 4.16402 30.2889 4.43751 30.5624C4.711 30.8359 5.08194 30.9896 5.46871 30.9896H29.5312C29.918 30.9896 30.2889 30.8359 30.5624 30.5624C30.8359 30.2889 30.9895 29.918 30.9895 29.5312V5.46874C30.9895 5.08197 30.8359 4.71103 30.5624 4.43754C30.2889 4.16405 29.918 4.01041 29.5312 4.01041V4.01041ZM10.7552 4.01041V30.9896V4.01041ZM17.5 4.01041V30.9896V4.01041ZM24.2448 4.01041V30.9896V4.01041ZM30.9895 10.7552H4.01038H30.9895ZM30.9895 17.5H4.01038H30.9895ZM30.9895 24.2448H4.01038H30.9895ZM7.38277 10.7552V4.01041V10.7552ZM4.01038 7.3828H10.7552H4.01038ZM20.8724 17.5V10.7552V17.5ZM17.5 14.1276H24.2448H17.5ZM14.1276 30.9896V24.2448V30.9896ZM10.7552 27.6172H17.5H10.7552ZM27.6171 17.5V10.7552V17.5Z" stroke="#4ECB71" stroke-width="0.729167" stroke-linecap="round" stroke-linejoin="round"/>
</svg>
