<svg width="35" height="35" viewBox="0 0 35 35" fill="none" xmlns="http://www.w3.org/2000/svg">
<path d="M27.8906 12.0641C28.1559 12.0639 28.4173 12.1281 28.6524 12.2512C28.8875 12.3742 29.0892 12.5525 29.2403 12.7706L29.3278 12.915C30.1241 14.2094 30.5696 15.6889 30.6203 17.2079C30.671 18.7268 30.3253 20.2327 29.617 21.5774C28.9088 22.922 27.8626 24.0591 26.5814 24.8765C25.3002 25.6939 23.8282 26.1635 22.3103 26.2391L21.875 26.25L16.5265 26.2478L18.1059 27.8272C18.3843 28.1051 18.5536 28.4738 18.5829 28.8661C18.6122 29.2584 18.4996 29.6482 18.2656 29.9644L18.1059 30.1481C17.8278 30.4256 17.4594 30.5942 17.0676 30.6231C16.6758 30.652 16.2867 30.5393 15.9709 30.3056L15.7871 30.1481L11.4078 25.7687C11.1299 25.491 10.961 25.1227 10.9317 24.7309C10.9024 24.3391 11.0147 23.9498 11.2481 23.6337L11.4078 23.4478L15.7871 19.0706C16.0803 18.7798 16.4723 18.6102 16.885 18.5956C17.2976 18.5811 17.7006 18.7227 18.0135 18.9922C18.3263 19.2617 18.5261 19.6393 18.5728 20.0496C18.6195 20.4599 18.5098 20.8727 18.2656 21.2056L18.1059 21.3894L16.5287 22.9666H21.875C23.2631 22.9668 24.5993 22.4392 25.6128 21.4907C26.6263 20.5422 27.2412 19.2438 27.3328 17.8587L27.3437 17.5C27.3437 16.4172 27.0287 15.4087 26.4884 14.56C26.3364 14.3111 26.2534 14.0263 26.2481 13.7347C26.2428 13.4431 26.3152 13.1554 26.4581 12.9011C26.6009 12.6469 26.8089 12.4353 27.0607 12.2882C27.3125 12.141 27.599 12.0637 27.8906 12.0641V12.0641ZM16.8875 4.85187C17.1652 4.57402 17.5335 4.40509 17.9253 4.37578C18.3171 4.34648 18.7064 4.45875 19.0225 4.69219L19.2062 4.85187L23.5856 9.22906L23.7453 9.415C23.9513 9.69374 24.0638 10.0306 24.0665 10.3772C24.0693 10.7238 23.9622 11.0624 23.7606 11.3444L23.5856 11.55L19.2062 15.9294L19.0225 16.0869C18.744 16.2932 18.4072 16.4061 18.0606 16.4092C17.714 16.4124 17.3753 16.3057 17.0931 16.1044L16.8875 15.9294L16.7278 15.7456C16.5212 15.4667 16.4085 15.1294 16.4057 14.7823C16.403 14.4353 16.5104 14.0962 16.7125 13.8141L16.8875 13.6084L18.4646 12.0291H13.125C11.7365 12.0288 10.4 12.5568 9.38643 13.5057C8.37288 14.4547 7.75823 15.7536 7.66715 17.1391L7.65621 17.5C7.65621 18.4209 7.88371 19.2894 8.28621 20.0528L8.52684 20.4553C8.74758 20.8273 8.81247 21.2714 8.7074 21.6911C8.60233 22.1107 8.33579 22.4718 7.96579 22.6959C7.59579 22.9199 7.15226 22.9888 6.73173 22.8875C6.31119 22.7862 5.94767 22.523 5.72028 22.155C4.90829 20.8627 4.44844 19.3805 4.38639 17.8555C4.32433 16.3306 4.66224 14.8159 5.36654 13.4619C6.07085 12.1079 7.11707 10.9617 8.40132 10.137C9.68557 9.31238 11.1632 8.83798 12.6875 8.76094L13.125 8.75L18.4625 8.74781L16.8875 7.17281L16.7278 6.98687C16.4943 6.67085 16.3821 6.28154 16.4114 5.88974C16.4407 5.49794 16.6096 5.12966 16.8875 4.85187Z" fill="#4ECB71"/>
</svg>
