<svg width="35" height="35" viewBox="0 0 35 35" fill="none" xmlns="http://www.w3.org/2000/svg">
<path d="M35 17.5C35 22.1413 33.1563 26.5925 29.8744 29.8744C26.5925 33.1563 22.1413 35 17.5 35C12.8587 35 8.40752 33.1563 5.12563 29.8744C1.84375 26.5925 0 22.1413 0 17.5C0 12.8587 1.84375 8.40752 5.12563 5.12563C8.40752 1.84375 12.8587 0 17.5 0C22.1413 0 26.5925 1.84375 29.8744 5.12563C33.1563 8.40752 35 12.8587 35 17.5V17.5ZM12.0312 8.75437V26.25H14.9516V19.5212H18.6375L21.8312 26.25H25.1562L21.56 19.0334C23.3712 18.3794 24.8303 16.625 24.8303 14.1378C24.8303 10.8828 22.5772 8.75437 18.8366 8.75437H12.0312V8.75437ZM14.9516 11.1388V17.2134H18.34C20.5166 17.2134 21.7809 16.2006 21.7809 14.2384C21.7809 12.2412 20.4772 11.1388 18.4188 11.1388H14.9516Z" fill="#4ECB71"/>
</svg>
