<svg width="35" height="36" viewBox="0 0 35 36" fill="none" xmlns="http://www.w3.org/2000/svg">
<path d="M17.5 4.906C15.3106 4.90595 13.1561 5.45357 11.2324 6.499C9.30882 7.54442 7.67727 9.05444 6.48636 10.8915C5.29544 12.7286 4.583 14.8345 4.4139 17.0173C4.24481 19.2001 4.62443 21.3905 5.51821 23.3891C6.41198 25.3877 7.79151 27.131 9.53118 28.4602C11.2708 29.7894 13.3154 30.6623 15.4786 30.9995C17.6418 31.3366 19.8551 31.1272 21.9167 30.3904C23.9783 29.6537 25.8229 28.4128 27.2825 26.781H17.5V24.5935H28.8684C29.2687 23.9023 29.6078 23.1716 29.8791 22.406H17.5V20.2185H30.4434C30.5637 19.5076 30.625 18.7748 30.625 18.031H17.5V15.8435H30.4434C30.319 15.0994 30.1302 14.3674 29.8791 13.656H17.5V11.4685H28.8684C28.4162 10.6869 27.8848 9.95385 27.2825 9.281H17.5V7.0935H24.7581C22.6082 5.66274 20.0824 4.9015 17.5 4.906V4.906Z" fill="#4ECB71"/>
</svg>
