<svg width="35" height="36" viewBox="0 0 35 36" fill="none" xmlns="http://www.w3.org/2000/svg">
<path d="M18.375 4.37955C18.375 4.14748 18.2828 3.92492 18.1187 3.76083C17.9546 3.59673 17.7321 3.50455 17.5 3.50455C17.2679 3.50455 17.0454 3.59673 16.8813 3.76083C16.7172 3.92492 16.625 4.14748 16.625 4.37955V6.12955C16.625 6.36161 16.7172 6.58417 16.8813 6.74827C17.0454 6.91236 17.2679 7.00455 17.5 7.00455C17.7321 7.00455 17.9546 6.91236 18.1187 6.74827C18.2828 6.58417 18.375 6.36161 18.375 6.12955V4.37955ZM17.5 10.5045C19.3565 10.5045 21.137 11.242 22.4497 12.5548C23.7625 13.8676 24.5 15.648 24.5 17.5045C24.5 19.3611 23.7625 21.1415 22.4497 22.4543C21.137 23.767 19.3565 24.5045 17.5 24.5045C15.6435 24.5045 13.863 23.767 12.5502 22.4543C11.2375 21.1415 10.5 19.3611 10.5 17.5045C10.5 15.648 11.2375 13.8676 12.5502 12.5548C13.863 11.242 15.6435 10.5045 17.5 10.5045V10.5045ZM22.75 17.5045C22.75 16.1122 22.1969 14.7768 21.2123 13.7922C20.2277 12.8077 18.8924 12.2545 17.5 12.2545V22.7545C18.8924 22.7545 20.2277 22.2014 21.2123 21.2169C22.1969 20.2323 22.75 18.8969 22.75 17.5045ZM31.5 17.5045C31.5 17.7366 31.4078 17.9592 31.2437 18.1233C31.0796 18.2874 30.8571 18.3795 30.625 18.3795H28.875C28.6429 18.3795 28.4204 18.2874 28.2563 18.1233C28.0922 17.9592 28 17.7366 28 17.5045C28 17.2725 28.0922 17.0499 28.2563 16.8858C28.4204 16.7217 28.6429 16.6295 28.875 16.6295H30.625C30.8571 16.6295 31.0796 16.7217 31.2437 16.8858C31.4078 17.0499 31.5 17.2725 31.5 17.5045ZM18.375 28.8795C18.375 28.6475 18.2828 28.4249 18.1187 28.2608C17.9546 28.0967 17.7321 28.0045 17.5 28.0045C17.2679 28.0045 17.0454 28.0967 16.8813 28.2608C16.7172 28.4249 16.625 28.6475 16.625 28.8795V30.6295C16.625 30.8616 16.7172 31.0842 16.8813 31.2483C17.0454 31.4124 17.2679 31.5045 17.5 31.5045C17.7321 31.5045 17.9546 31.4124 18.1187 31.2483C18.2828 31.0842 18.375 30.8616 18.375 30.6295V28.8795ZM6.99999 17.5045C6.99999 17.7366 6.9078 17.9592 6.74371 18.1233C6.57962 18.2874 6.35706 18.3795 6.12499 18.3795H4.31024C4.07818 18.3795 3.85562 18.2874 3.69152 18.1233C3.52743 17.9592 3.43524 17.7366 3.43524 17.5045C3.43524 17.2725 3.52743 17.0499 3.69152 16.8858C3.85562 16.7217 4.07818 16.6295 4.31024 16.6295H6.12499C6.35706 16.6295 6.57962 16.7217 6.74371 16.8858C6.9078 17.0499 6.99999 17.2725 6.99999 17.5045ZM8.49449 7.26005C8.41314 7.17869 8.31656 7.11416 8.21026 7.07013C8.10397 7.0261 7.99004 7.00344 7.87499 7.00344C7.75994 7.00344 7.64601 7.0261 7.53972 7.07013C7.43343 7.11416 7.33685 7.17869 7.25549 7.26005C7.17414 7.3414 7.1096 7.43798 7.06558 7.54428C7.02155 7.65057 6.99889 7.7645 6.99889 7.87955C6.99889 7.9946 7.02155 8.10852 7.06558 8.21482C7.1096 8.32111 7.17414 8.41769 7.25549 8.49905L9.00549 10.249C9.16979 10.4133 9.39263 10.5057 9.62499 10.5057C9.85735 10.5057 10.0802 10.4133 10.2445 10.249C10.4088 10.0847 10.5011 9.8619 10.5011 9.62955C10.5011 9.39719 10.4088 9.17435 10.2445 9.01005L8.49449 7.26005ZM7.25549 27.749C7.33677 27.8305 7.43333 27.8952 7.53963 27.9393C7.64594 27.9834 7.7599 28.0061 7.87499 28.0061C7.99008 28.0061 8.10405 27.9834 8.21035 27.9393C8.31665 27.8952 8.41321 27.8305 8.49449 27.749L10.2445 25.999C10.4088 25.8347 10.5011 25.6119 10.5011 25.3795C10.5011 25.1472 10.4088 24.9243 10.2445 24.76C10.0802 24.5957 9.85735 24.5034 9.62499 24.5034C9.39263 24.5034 9.16979 24.5957 9.00549 24.76L7.25549 26.51C7.17401 26.5913 7.10936 26.6879 7.06524 26.7942C7.02113 26.9005 6.99843 27.0145 6.99843 27.1295C6.99843 27.2446 7.02113 27.3586 7.06524 27.4649C7.10936 27.5712 7.17401 27.6678 7.25549 27.749ZM26.5055 7.26005C26.6698 7.09575 26.8926 7.00344 27.125 7.00344C27.3573 7.00344 27.5802 7.09575 27.7445 7.26005C27.9088 7.42435 28.0011 7.64719 28.0011 7.87955C28.0011 8.1119 27.9088 8.33475 27.7445 8.49905L25.9945 10.249C25.9131 10.3304 25.8166 10.3949 25.7103 10.439C25.604 10.483 25.49 10.5057 25.375 10.5057C25.2599 10.5057 25.146 10.483 25.0397 10.439C24.9334 10.3949 24.8368 10.3304 24.7555 10.249C24.6741 10.1677 24.6096 10.0711 24.5656 9.96482C24.5215 9.85852 24.4989 9.7446 24.4989 9.62955C24.4989 9.5145 24.5215 9.40057 24.5656 9.29428C24.6096 9.18798 24.6741 9.0914 24.7555 9.01005L26.5055 7.26005ZM27.7445 27.749C27.6632 27.8305 27.5667 27.8952 27.4603 27.9393C27.354 27.9834 27.2401 28.0061 27.125 28.0061C27.0099 28.0061 26.8959 27.9834 26.7896 27.9393C26.6833 27.8952 26.5868 27.8305 26.5055 27.749L24.7555 25.999C24.5912 25.8347 24.4989 25.6119 24.4989 25.3795C24.4989 25.1472 24.5912 24.9243 24.7555 24.76C24.9198 24.5957 25.1426 24.5034 25.375 24.5034C25.6073 24.5034 25.8302 24.5957 25.9945 24.76L27.7445 26.51C27.826 26.5913 27.8906 26.6879 27.9347 26.7942C27.9788 26.9005 28.0016 27.0145 28.0016 27.1295C28.0016 27.2446 27.9788 27.3586 27.9347 27.4649C27.8906 27.5712 27.826 27.6678 27.7445 27.749Z" fill="#4ECB71"/>
</svg>
