<svg width="35" height="35" viewBox="0 0 35 35" fill="none" xmlns="http://www.w3.org/2000/svg">
<path opacity="0.3" d="M15.9395 11.4188L22.8958 18.375C21.9916 15.7354 19.7312 12.1917 17.4854 9.275C16.975 9.96042 16.45 10.675 15.9395 11.4188V11.4188ZM17.5 26.25C18.9 26.25 20.1687 25.725 21.1895 24.9083L12.8479 16.5667C12.1333 18.0542 11.6666 19.4104 11.6666 20.4167C11.6666 23.6396 14.277 26.25 17.5 26.25Z" fill="#4ECB71"/>
<path d="M17.5 9.275C19.7313 12.1917 21.9917 15.7354 22.9105 18.375L26.1625 21.6271C26.2063 21.2333 26.25 20.825 26.25 20.4167C26.25 14.6125 17.5 4.66667 17.5 4.66667C17.5 4.66667 15.7792 6.63542 13.8542 9.31875L15.9542 11.4188C16.45 10.675 16.975 9.96042 17.5 9.275ZM7.88962 7.49583L5.83337 9.55208L10.675 14.3937C9.55212 16.5229 8.75004 18.6521 8.75004 20.4167C8.75004 25.2437 12.673 29.1667 17.5 29.1667C19.7167 29.1667 21.7292 28.3354 23.2605 26.9792L27.0959 30.8146L29.1667 28.7583L7.88962 7.49583ZM17.5 26.25C14.2771 26.25 11.6667 23.6396 11.6667 20.4167C11.6667 19.4104 12.1334 18.0542 12.848 16.5667L21.1896 24.9083C20.1688 25.725 18.9 26.25 17.5 26.25V26.25Z" fill="#4ECB71"/>
</svg>
