<svg width="35" height="35" viewBox="0 0 35 35" fill="none" xmlns="http://www.w3.org/2000/svg">
<path d="M20.1956 18.7168C19.8193 18.5445 19.291 18.4549 18.6102 18.4477H14.7039V22.6784H18.5566C19.2446 22.6784 19.7805 22.5849 20.1633 22.3984C20.8584 22.0533 21.2062 21.3932 21.2062 20.417C21.2062 19.5918 20.8693 19.0252 20.1956 18.7168ZM20.2388 15.4279C20.6681 15.166 20.8835 14.7011 20.8835 14.0334C20.8835 13.294 20.5992 12.8062 20.0315 12.5694C19.5415 12.4037 18.9159 12.3217 18.1557 12.3217H14.7033V15.82H18.5604C19.2495 15.8206 19.8095 15.6893 20.2388 15.4279" fill="#4ECB71"/>
<path d="M17.5 1.09375C8.43937 1.09375 1.09375 8.43937 1.09375 17.5C1.09375 26.5606 8.43937 33.9062 17.5 33.9062C26.5606 33.9062 33.9062 26.5606 33.9062 17.5C33.9062 8.43937 26.5606 1.09375 17.5 1.09375ZM23.8476 23.1733C23.5572 23.6582 23.1755 24.0822 22.7237 24.4218C22.2168 24.8095 21.6191 25.0748 20.9305 25.2186C20.242 25.3624 19.495 25.4341 18.6884 25.4341H11.5391V9.56594H19.2079C21.1422 9.59438 22.5132 10.1577 23.3204 11.2558C23.806 11.9306 24.0488 12.7378 24.0488 13.6784C24.0488 14.647 23.8033 15.4257 23.3138 16.0141C23.0393 16.3445 22.6368 16.6452 22.103 16.9181C22.913 17.2123 23.5244 17.6794 23.9367 18.3181C24.3485 18.9569 24.5547 19.7318 24.5547 20.6434C24.5541 21.5835 24.319 22.4268 23.8476 23.1733" fill="#4ECB71"/>
</svg>
