<svg width="35" height="35" viewBox="0 0 35 35" fill="none" xmlns="http://www.w3.org/2000/svg">
<path d="M17.5 1.09375C8.43937 1.09375 1.09375 8.43937 1.09375 17.5C1.09375 26.5606 8.43937 33.9062 17.5 33.9062C26.5606 33.9062 33.9062 26.5606 33.9062 17.5C33.9062 8.43937 26.5606 1.09375 17.5 1.09375ZM24.8741 25.4341H22.6773L22.3442 23.4533C21.7055 24.2036 21.1307 24.7324 20.6216 25.0392C19.746 25.5746 18.6698 25.8431 17.3923 25.8431C15.2895 25.8431 13.5669 25.1147 12.2254 23.6595C10.8254 22.196 10.1259 20.195 10.1259 17.6559C10.1259 15.0883 10.8325 13.0298 12.2467 11.4805C13.6604 9.93125 15.5302 9.15687 17.8555 9.15687C19.8723 9.15687 21.4922 9.6682 22.7161 10.6909C23.94 11.7135 24.6416 12.9894 24.821 14.5179H21.5589C21.3079 13.4345 20.6937 12.6771 19.7187 12.2467C19.1729 12.0094 18.5664 11.8918 17.8987 11.8918C16.6212 11.8918 15.5717 12.3736 14.7498 13.3372C13.9284 14.3008 13.5171 15.7489 13.5171 17.6827C13.5171 19.6312 13.9623 21.0104 14.852 21.8198C15.7418 22.6286 16.7541 23.0338 17.8877 23.0338C19.0006 23.0338 19.9117 22.7145 20.6221 22.0763C21.333 21.438 21.7705 20.6019 21.9357 19.5672H18.2645V16.9187H24.8746V25.4341H24.8741Z" fill="#4ECB71"/>
</svg>
