<svg width="35" height="36" viewBox="0 0 35 36" fill="none" xmlns="http://www.w3.org/2000/svg">
<path d="M32.5588 28.3216C32.411 28.5559 32.2064 28.749 31.9639 28.8829C31.7214 29.0168 31.4489 29.087 31.1719 29.0872H21.3281C20.893 29.0872 20.4757 28.9144 20.1681 28.6067C19.8604 28.299 19.6875 27.8817 19.6875 27.4466V6.66533C19.6869 6.29242 19.8132 5.9304 20.0459 5.63894C20.2785 5.34747 20.6035 5.14396 20.9673 5.06193C21.331 4.9799 21.7119 5.02425 22.0471 5.18767C22.3823 5.3511 22.6518 5.62384 22.8113 5.96096L32.655 26.7422C32.7734 26.9922 32.8267 27.2681 32.8099 27.5443C32.7931 27.8204 32.7067 28.0878 32.5588 28.3216V28.3216ZM22.9688 13.9585V25.8038H28.5797L22.9688 13.9585ZM3.28127 29.085C3.09476 29.085 2.91134 29.0373 2.74846 28.9464C2.58558 28.8556 2.44863 28.7246 2.35065 28.5659C2.25266 28.4072 2.19689 28.226 2.18863 28.0397C2.18037 27.8534 2.2199 27.668 2.30346 27.5013L13.241 5.62627C13.3513 5.40608 13.5328 5.22959 13.7559 5.12536C13.9791 5.02113 14.2309 4.99527 14.4705 5.05196C14.7102 5.10865 14.9237 5.24458 15.0766 5.43774C15.2294 5.6309 15.3125 5.86998 15.3125 6.11627V27.9913C15.3125 28.2813 15.1973 28.5595 14.9922 28.7647C14.7871 28.9698 14.5089 29.085 14.2188 29.085H3.28127Z" fill="#4ECB71"/>
</svg>
