<svg width="35" height="36" viewBox="0 0 35 36" fill="none" xmlns="http://www.w3.org/2000/svg">
<path d="M2.44129 28.2142C2.58902 28.4485 2.79369 28.6416 3.03619 28.7755C3.2787 28.9093 3.55116 28.9796 3.82816 28.9798H13.6719C14.107 28.9798 14.5243 28.8069 14.832 28.4993C15.1397 28.1916 15.3125 27.7743 15.3125 27.3392V6.55791C15.3132 6.18499 15.1868 5.82298 14.9542 5.53151C14.7216 5.24005 14.3966 5.03654 14.0328 4.95451C13.669 4.87248 13.2881 4.91683 12.9529 5.08025C12.6177 5.24367 12.3482 5.51642 12.1888 5.85353L2.34504 26.6348C2.22662 26.8848 2.17335 27.1607 2.19018 27.4368C2.20701 27.713 2.29339 27.9804 2.44129 28.2142V28.2142ZM12.0313 13.851V25.6963H6.42035L12.0313 13.851ZM31.7188 28.9776C31.9053 28.9776 32.0887 28.9299 32.2516 28.839C32.4145 28.7482 32.5514 28.6171 32.6494 28.4584C32.7474 28.2997 32.8032 28.1186 32.8114 27.9323C32.8197 27.7459 32.7802 27.5606 32.6966 27.3938L21.7591 5.51885C21.6487 5.29866 21.4673 5.12217 21.2442 5.01794C21.021 4.91371 20.7692 4.88785 20.5295 4.94454C20.2898 5.00123 20.0763 5.13716 19.9235 5.33032C19.7707 5.52348 19.6876 5.76255 19.6875 6.00885V27.8838C19.6875 28.1739 19.8028 28.4521 20.0079 28.6572C20.213 28.8624 20.4912 28.9776 20.7813 28.9776H31.7188Z" fill="#4ECB71"/>
</svg>
