<svg width="35" height="36" viewBox="0 0 35 36" fill="none" xmlns="http://www.w3.org/2000/svg">
<path d="M6.49395 3.73834C6.2911 3.87089 6.12446 4.0519 6.00912 4.26502C5.89378 4.47814 5.83336 4.71663 5.83333 4.95896V15.1673C5.83333 15.5541 5.98698 15.925 6.26047 16.1985C6.53396 16.472 6.90489 16.6256 7.29166 16.6256H30.625C30.9597 16.6252 31.2841 16.5097 31.5438 16.2984C31.8034 16.0871 31.9824 15.793 32.0508 15.4653C32.1192 15.1377 32.0728 14.7964 31.9194 14.4989C31.766 14.2014 31.5149 13.9657 31.2083 13.8315L7.875 3.62313C7.65319 3.52649 7.41082 3.48655 7.16973 3.50692C6.92864 3.52728 6.69641 3.60731 6.49395 3.7398V3.73834ZM23.6527 13.709H8.75V7.18875L23.6542 13.709H23.6527ZM5.83333 31.9381C5.83342 32.0609 5.86452 32.1817 5.92374 32.2893C5.98296 32.3968 6.06838 32.4877 6.17209 32.5534C6.2758 32.6192 6.39443 32.6577 6.51698 32.6653C6.63953 32.673 6.76203 32.6496 6.87312 32.5973L31.6648 20.9306C31.8144 20.8599 31.9355 20.7403 32.0082 20.5915C32.0809 20.4428 32.1008 20.2738 32.0646 20.1123C32.0285 19.9507 31.9384 19.8063 31.8093 19.7027C31.6802 19.5991 31.5197 19.5425 31.3542 19.5423H6.5625C6.36911 19.5423 6.18364 19.6191 6.0469 19.7559C5.91015 19.8926 5.83333 20.0781 5.83333 20.2715V31.9381Z" fill="#4ECB71"/>
</svg>
