<svg width="35" height="36" viewBox="0 0 35 36" fill="none" xmlns="http://www.w3.org/2000/svg">
<path d="M28.506 32.0589C28.7089 31.9264 28.8755 31.7454 28.9909 31.5323C29.1062 31.3191 29.1666 31.0806 29.1667 30.8383V20.63C29.1667 20.2432 29.013 19.8723 28.7395 19.5988C28.466 19.3253 28.0951 19.1717 27.7083 19.1717H4.375C4.04027 19.172 3.71587 19.2876 3.45624 19.4989C3.19661 19.7101 3.01757 20.0043 2.94916 20.332C2.88076 20.6596 2.92715 21.0008 3.08056 21.2984C3.23397 21.5959 3.48506 21.8315 3.79167 21.9658L27.125 32.1742C27.3468 32.2708 27.5892 32.3107 27.8303 32.2904C28.0714 32.27 28.3036 32.19 28.506 32.0575V32.0589ZM11.3473 22.0883H26.25V28.6085L11.3458 22.0883H11.3473ZM29.1667 3.85915C29.1666 3.73636 29.1355 3.61558 29.0763 3.50801C29.017 3.40045 28.9316 3.30958 28.8279 3.24383C28.7242 3.17809 28.6056 3.1396 28.483 3.13193C28.3605 3.12427 28.238 3.14768 28.1269 3.19999L3.33521 14.8667C3.18557 14.9374 3.06446 15.057 2.9918 15.2057C2.91913 15.3545 2.89924 15.5235 2.93538 15.685C2.97152 15.8466 3.06155 15.991 3.19067 16.0946C3.31979 16.1982 3.48031 16.2547 3.64584 16.255H28.4375C28.6309 16.255 28.8164 16.1782 28.9531 16.0414C29.0898 15.9047 29.1667 15.7192 29.1667 15.5258V3.85915Z" fill="#4ECB71"/>
</svg>
