<svg width="35" height="35" viewBox="0 0 35 35" fill="none" xmlns="http://www.w3.org/2000/svg">
<path d="M3.5 14C3.50018 16.2525 4.22438 18.4454 5.56574 20.255C6.90711 22.0646 8.7946 23.3951 10.9498 24.0503C11.4773 25.7853 12.4452 27.354 13.7592 28.6038C15.0732 29.8536 16.6885 30.7417 18.4477 31.1818C20.2069 31.6218 22.0501 31.5988 23.7978 31.1148C25.5454 30.6308 27.1379 29.7025 28.4202 28.4202C29.7025 27.138 30.6308 25.5454 31.1148 23.7978C31.5987 22.0501 31.6218 20.2069 31.1818 18.4477C30.7417 16.6885 29.8536 15.0732 28.6038 13.7592C27.354 12.4452 25.7852 11.4773 24.0503 10.9498C23.3208 8.53829 21.7486 6.46948 19.6205 5.12087C17.4925 3.77227 14.9505 3.23378 12.4584 3.60368C9.9663 3.97358 7.69028 5.2272 6.04569 7.13577C4.4011 9.04435 3.49758 11.4806 3.5 14V14ZM14 5.25002C15.7127 5.24975 17.3878 5.752 18.8178 6.69454C20.2477 7.63707 21.3698 8.97847 22.0448 10.5525C20.4973 10.3978 18.9349 10.5888 17.4703 11.1117C16.0057 11.6345 14.6755 12.4762 13.5758 13.5758C12.4762 14.6755 11.6345 16.0057 11.1117 17.4703C10.5888 18.9349 10.3978 20.4973 10.5525 22.0448C8.70056 21.2504 7.1795 19.8412 6.24617 18.0552C5.31284 16.2693 5.02442 14.2159 5.42962 12.242C5.83483 10.268 6.90882 8.49432 8.47025 7.22047C10.0317 5.94661 11.9849 5.25062 14 5.25002V5.25002ZM29.75 21C29.7514 23.0162 29.0564 24.971 27.7826 26.5339C26.5089 28.0968 24.7345 29.1718 22.7595 29.5772C20.7844 29.9826 18.73 29.6936 16.9436 28.7589C15.1571 27.8242 13.7483 26.3012 12.9553 24.4475C14.5027 24.6022 16.0651 24.4112 17.5298 23.8883C18.9944 23.3655 20.3245 22.5238 21.4242 21.4242C22.5238 20.3246 23.3655 18.9944 23.8883 17.5298C24.4112 16.0652 24.6022 14.5027 24.4475 12.9553C26.0215 13.6303 27.3629 14.7523 28.3055 16.1823C29.248 17.6122 29.7503 19.2873 29.75 21V21Z" fill="#4ECB71"/>
</svg>
