<svg width="35" height="35" viewBox="0 0 35 35" fill="none" xmlns="http://www.w3.org/2000/svg">
<path d="M17.15 27.7083C18.8417 27.7083 19.8042 26.25 19.8042 23.7563C19.8042 22.1667 19.6875 20.2417 19.3958 18.4771L26.25 7.29167H22.2833L18.5354 14.3208L18.3021 13.6063C17.2521 10.4854 15.7792 7.29167 12.6583 7.29167C11.6667 7.29167 10.8646 7.55417 10.2083 8.07917C8.75 9.31875 8.75 11.6667 8.75 12.3958H10.0771C10.1646 11.7542 10.5146 9.96042 12.0313 9.96042C14.5833 9.96042 15.75 14.5833 16.625 18.1125C15.3125 21.2625 14.5833 23.5375 14.5833 24.7479C14.5833 26.1771 15.4 27.7083 17.15 27.7083Z" fill="#4ECB71"/>
</svg>
