<svg width="35" height="35" viewBox="0 0 35 35" fill="none" xmlns="http://www.w3.org/2000/svg">
<g clip-path="url(#clip0_12_57)">
<path d="M30.1467 14C27.1673 14 25.0352 16.0213 24.7771 18.9817H23.8088C23.4485 18.9817 23.2327 19.1917 23.2327 19.5417C23.2327 19.8917 23.4485 20.1017 23.8088 20.1017H24.7727C24.9944 23.1496 27.1819 25.0935 30.4821 25.0935C31.8588 25.0935 32.9394 24.8835 33.8829 24.4329C34.1133 24.3235 34.3744 24.1165 34.3087 23.746C34.3005 23.6747 34.2767 23.6061 34.2389 23.5451C34.201 23.4841 34.1502 23.4322 34.09 23.3931C33.9383 23.2983 33.7254 23.2881 33.4746 23.364C33.3021 23.4183 33.131 23.4766 32.9612 23.539C32.3575 23.7519 31.8369 23.9371 30.6294 23.9371C28.0773 23.9371 26.3885 22.4452 26.3244 20.1381V20.1017H34.2635C34.72 20.1017 34.981 19.8625 35 19.4265V19.3419C34.9913 14.3865 31.2842 14 30.1467 14ZM33.6117 18.9817H26.32L26.3258 18.9306C26.5023 16.6265 28.019 15.1375 30.189 15.1375C31.8427 15.1375 33.6117 16.1365 33.6117 18.9379V18.9817ZM13.9154 14.9056C13.9154 14.4171 13.631 14.1269 13.1571 14.1269C12.6831 14.1269 12.3988 14.4185 12.3988 14.9056V18.9817H13.9154V14.9056ZM20.1717 20.4721C20.1717 22.4029 18.7892 23.9152 17.0217 23.9152C14.9319 23.9152 13.9154 22.8025 13.9154 20.5129V20.1017H12.3988V20.5975C12.3988 23.5813 13.806 25.0935 16.5813 25.0935C18.2146 25.0935 19.4148 24.3848 20.144 22.9863L20.1731 22.9338V24.1894C20.1731 24.6765 20.4546 24.9681 20.93 24.9681C21.404 24.9681 21.6883 24.6765 21.6883 24.1894V20.1017H20.1717V20.4721ZM20.93 14.1269C20.4546 14.1269 20.1717 14.4185 20.1717 14.9056V18.9817H21.6883V14.9056C21.6883 14.4171 21.404 14.1269 20.93 14.1269ZM5.31563 14C2.89479 14 1.94688 15.5633 1.71208 16.0417L1.51521 16.4471V10.726C1.51521 10.22 1.225 9.90646 0.756875 9.90646C0.290208 9.90646 0 10.22 0 10.726V18.9817H1.51521V18.9598C1.51521 17.1383 2.56521 15.1798 4.87521 15.1798C6.75646 15.1798 7.79333 16.3873 7.79333 18.5806V18.9817H9.31V18.6229C9.31 15.6421 7.89104 14 5.31563 14V14ZM0 24.1471C0 24.6531 0.290208 24.9681 0.758333 24.9681C1.225 24.9681 1.51521 24.6531 1.51521 24.1471V20.1017H0V24.1471ZM7.79333 24.1471C7.79333 24.6531 8.085 24.9681 8.55167 24.9681C9.01833 24.9681 9.31 24.6531 9.31 24.1471V20.1017H7.79333V24.1471Z" fill="#4ECB71"/>
</g>
<defs>
<clipPath id="clip0_12_57">
<rect width="35" height="35" fill="white"/>
</clipPath>
</defs>
</svg>
