<svg width="35" height="35" viewBox="0 0 35 35" fill="none" xmlns="http://www.w3.org/2000/svg">
<path d="M27.7521 5.19167C25.3167 3.16458 22.2979 1.8375 18.9583 1.53125V4.4625C21.4813 4.73958 23.7854 5.74583 25.6813 7.2625L27.7521 5.19167V5.19167ZM16.0417 4.4625V1.53125C12.7021 1.82292 9.68333 3.16458 7.24792 5.19167L9.31875 7.2625C11.2478 5.70867 13.58 4.73733 16.0417 4.4625V4.4625ZM7.2625 9.31875L5.19167 7.24792C3.16458 9.68333 1.8375 12.7021 1.53125 16.0417H4.4625C4.73958 13.5188 5.74583 11.2146 7.2625 9.31875V9.31875ZM30.5375 16.0417H33.4688C33.1625 12.7021 31.8354 9.68333 29.8083 7.24792L27.7375 9.31875C29.2913 11.2478 30.2627 13.58 30.5375 16.0417V16.0417ZM10.2083 17.5L15.225 19.775L17.5 24.7917L19.775 19.775L24.7917 17.5L19.775 15.225L17.5 10.2083L15.225 15.225L10.2083 17.5Z" fill="#4ECB71"/>
<path d="M17.5 30.625C15.3463 30.6245 13.2261 30.0918 11.3281 29.074C9.43008 28.0563 7.81302 26.5852 6.62081 24.7917H10.2083V21.875H1.45831V30.625H4.37498V26.6875C7.27706 30.8292 12.0604 33.5417 17.5 33.5417C24.6021 33.5417 30.625 28.9187 32.725 22.5167L29.8666 21.8604C28.0729 26.95 23.2166 30.625 17.5 30.625Z" fill="#4ECB71"/>
</svg>
