<svg width="35" height="35" viewBox="0 0 35 35" fill="none" xmlns="http://www.w3.org/2000/svg">
<path opacity="0.3" d="M11.3021 13.1104C10.4941 13.8946 9.85193 14.8332 9.41353 15.8703C8.97514 16.9074 8.7495 18.022 8.75 19.1479C8.75 23.8729 12.6729 27.7083 17.5 27.7083V7.01459L11.3021 13.1104Z" fill="#4ECB71"/>
<path d="M25.7396 11.025L17.5 2.91666L9.2604 11.025C7.14581 13.1104 5.83331 15.9833 5.83331 19.1479C5.83331 25.4917 11.0541 30.625 17.5 30.625C23.9458 30.625 29.1666 25.4917 29.1666 19.1479C29.1666 15.9833 27.8541 13.1104 25.7396 11.025V11.025ZM8.74998 19.1479C8.74998 16.8729 9.65415 14.7292 11.3021 13.1104L17.5 7.01457V27.7083C12.6729 27.7083 8.74998 23.8729 8.74998 19.1479V19.1479Z" fill="#4ECB71"/>
</svg>
