<svg width="35" height="35" viewBox="0 0 35 35" fill="none" xmlns="http://www.w3.org/2000/svg">
<path opacity="0.3" d="M15.9396 11.4187L22.8959 18.375C21.9917 15.7354 19.7313 12.1917 17.4854 9.27499C16.975 9.96041 16.45 10.675 15.9396 11.4187V11.4187ZM17.5 26.25C18.9 26.25 20.1688 25.725 21.1896 24.9083L12.8479 16.5667C12.1334 18.0542 11.6667 19.4104 11.6667 20.4167C11.6667 23.6396 14.2771 26.25 17.5 26.25Z" fill="#4ECB71"/>
<path d="M17.5 9.27499C19.7312 12.1917 21.9916 15.7354 22.9104 18.375L26.1625 21.6271C26.2062 21.2333 26.25 20.825 26.25 20.4167C26.25 14.6125 17.5 4.66666 17.5 4.66666C17.5 4.66666 15.7791 6.63541 13.8541 9.31874L15.9541 11.4187C16.45 10.675 16.975 9.96041 17.5 9.27499ZM7.88956 7.49582L5.83331 9.55207L10.675 14.3937C9.55206 16.5229 8.74998 18.6521 8.74998 20.4167C8.74998 25.2437 12.6729 29.1667 17.5 29.1667C19.7166 29.1667 21.7291 28.3354 23.2604 26.9792L27.0958 30.8146L29.1666 28.7583L7.88956 7.49582ZM17.5 26.25C14.2771 26.25 11.6666 23.6396 11.6666 20.4167C11.6666 19.4104 12.1333 18.0542 12.8479 16.5667L21.1896 24.9083C20.1687 25.725 18.9 26.25 17.5 26.25V26.25Z" fill="#4ECB71"/>
</svg>
