<svg width="35" height="36" viewBox="0 0 35 36" fill="none" xmlns="http://www.w3.org/2000/svg">
<path d="M15.1725 26.0827C15.1941 26.1035 15.2145 26.1254 15.2338 26.1484C14.87 26.0511 14.5129 25.9303 14.1648 25.7867C14.3441 25.7475 14.5304 25.7541 14.7065 25.8058C14.8826 25.8576 15.0429 25.9528 15.1725 26.0827ZM12.3025 24.5354C12.2635 24.5745 12.2216 24.6106 12.1771 24.6434C11.6036 24.2039 11.0864 23.6955 10.6371 23.1296C10.7246 23.0059 10.8368 22.9016 10.9667 22.8235C11.0965 22.7454 11.2412 22.6952 11.3915 22.676C11.5418 22.6567 11.6945 22.6689 11.8398 22.7118C11.9852 22.7547 12.12 22.8273 12.2358 22.9251C12.3516 23.0228 12.4459 23.1436 12.5125 23.2797C12.5792 23.4157 12.6169 23.5642 12.6231 23.7156C12.6294 23.867 12.6041 24.0181 12.549 24.1592C12.4938 24.3003 12.4099 24.4285 12.3025 24.5354V24.5354ZM9.29108 20.0773C9.44742 20.2337 9.55271 20.4337 9.59306 20.6511C9.63341 20.8685 9.60694 21.093 9.51712 21.295C9.31021 20.8378 9.14334 20.3636 9.01837 19.8775C9.11908 19.9296 9.21108 19.997 9.29108 20.0773V20.0773ZM9.29108 15.7417C9.18258 15.8503 9.05238 15.9348 8.909 15.9896C9.0201 15.4229 9.18818 14.8688 9.41066 14.3359C9.55989 14.5466 9.62974 14.8033 9.60786 15.0606C9.58597 15.3179 9.47376 15.5592 9.29108 15.7417V15.7417ZM10.7552 12.8717C10.6352 12.7518 10.5448 12.6054 10.4913 12.4444C10.8777 11.9296 11.3196 11.4586 11.8082 11.04C11.9706 11.0828 12.121 11.1625 12.2478 11.2728C12.3745 11.3832 12.474 11.5212 12.5388 11.6762C12.6035 11.8313 12.6317 11.9991 12.621 12.1668C12.6104 12.3345 12.5613 12.4975 12.4775 12.6431C12.3938 12.7887 12.2776 12.9131 12.1379 13.0066C11.9983 13.1 11.8391 13.1601 11.6725 13.182C11.5059 13.204 11.3365 13.1873 11.1775 13.1332C11.0184 13.0792 10.8739 12.9892 10.7552 12.8702V12.8717ZM13.6267 10.0425C13.5829 9.99882 13.5429 9.9515 13.5071 9.90107C14.1361 9.57823 14.8021 9.33336 15.4905 9.1719C15.5115 9.39614 15.4628 9.62141 15.3508 9.81685C15.2389 10.0123 15.0693 10.1684 14.8652 10.2637C14.6612 10.359 14.4327 10.3889 14.2109 10.3493C13.9892 10.3097 13.7852 10.2026 13.6267 10.0425V10.0425ZM19.3769 26.2388C19.829 26.1396 20.2665 26.0054 20.6894 25.8407C20.458 25.7474 20.2017 25.736 19.963 25.8084C19.7243 25.8808 19.5175 26.0327 19.3769 26.2388V26.2388ZM22.6494 24.7615C23.2386 24.3327 23.7723 23.8311 24.2361 23.2696C24.1422 23.1503 24.0246 23.0518 23.8906 22.9804C23.7566 22.909 23.6093 22.8663 23.4579 22.855C23.3065 22.8436 23.1544 22.864 23.0113 22.9146C22.8682 22.9653 22.7372 23.0452 22.6267 23.1492C22.5161 23.2532 22.4285 23.3792 22.3692 23.5189C22.31 23.6587 22.2805 23.8093 22.2827 23.9611C22.2848 24.1129 22.3185 24.2626 22.3816 24.4006C22.4448 24.5387 22.536 24.6621 22.6494 24.7629V24.7615ZM25.324 21.5998C25.6169 21.0147 25.8424 20.3983 25.9963 19.7623C25.7944 19.7852 25.603 19.8638 25.4433 19.9894C25.2836 20.115 25.1621 20.2825 25.0923 20.4733C25.0225 20.6641 25.0072 20.8705 25.0481 21.0695C25.089 21.2684 25.1846 21.4521 25.324 21.5998ZM26.0911 16.0596C25.9646 15.3894 25.7595 14.7364 25.48 14.1142C25.3074 14.2518 25.1804 14.4384 25.1158 14.6496C25.0511 14.8607 25.052 15.0865 25.1181 15.2971C25.1842 15.5078 25.3125 15.6935 25.4862 15.8299C25.6599 15.9662 25.8707 16.0468 26.0911 16.0611V16.0596ZM24.4359 12.3656C24.0588 11.8748 23.6311 11.4251 23.1598 11.024C22.9681 11.0625 22.7902 11.1518 22.6446 11.2825C22.4991 11.4132 22.3913 11.5805 22.3324 11.767C22.2735 11.9536 22.2658 12.1525 22.3099 12.343C22.354 12.5336 22.4484 12.7088 22.5833 12.8505C22.7182 12.9921 22.8886 13.095 23.0767 13.1484C23.2649 13.2019 23.4639 13.2038 23.6531 13.1542C23.8423 13.1045 24.0147 13.005 24.1524 12.8661C24.2901 12.7271 24.388 12.5538 24.4359 12.3642V12.3656ZM21.054 10.0425C21.1299 9.9668 21.1943 9.88032 21.245 9.78586C20.5938 9.47626 19.9065 9.24895 19.199 9.10919C19.1655 9.33665 19.2045 9.56889 19.3105 9.77292C19.4165 9.97694 19.5841 10.1424 19.7895 10.2457C19.9948 10.3491 20.2276 10.385 20.4546 10.3486C20.6816 10.3121 20.8913 10.205 21.054 10.0425V10.0425ZM18.2671 11.3244C18.3746 11.4245 18.4608 11.5453 18.5206 11.6794C18.5803 11.8136 18.6125 11.9584 18.6151 12.1053C18.6177 12.2522 18.5906 12.398 18.5356 12.5342C18.4806 12.6704 18.3987 12.7941 18.2949 12.898C18.191 13.0019 18.0673 13.0837 17.9311 13.1387C17.7949 13.1938 17.6491 13.2208 17.5022 13.2182C17.3553 13.2156 17.2105 13.1834 17.0763 13.1237C16.9422 13.0639 16.8214 12.9777 16.7213 12.8702C16.5281 12.6629 16.4229 12.3887 16.4279 12.1053C16.4329 11.8219 16.5477 11.5516 16.7481 11.3512C16.9485 11.1508 17.2188 11.036 17.5022 11.031C17.7855 11.026 18.0598 11.1312 18.2671 11.3244V11.3244ZM15.1725 14.1959C15.28 14.296 15.3662 14.4167 15.426 14.5509C15.4857 14.6851 15.5179 14.8299 15.5205 14.9768C15.5231 15.1236 15.4961 15.2695 15.441 15.4057C15.386 15.5419 15.3042 15.6656 15.2003 15.7695C15.0964 15.8733 14.9727 15.9552 14.8365 16.0102C14.7003 16.0652 14.5545 16.0922 14.4076 16.0896C14.2608 16.087 14.1159 16.0549 13.9818 15.9951C13.8476 15.9353 13.7268 15.8492 13.6267 15.7417C13.4335 15.5344 13.3283 15.2601 13.3333 14.9768C13.3383 14.6934 13.4531 14.4231 13.6535 14.2227C13.8539 14.0223 14.1243 13.9075 14.4076 13.9025C14.691 13.8975 14.9652 14.0027 15.1725 14.1959ZM12.3025 18.8363C12.4041 18.7347 12.4847 18.6141 12.5397 18.4813C12.5947 18.3486 12.623 18.2063 12.623 18.0626C12.623 17.9189 12.5947 17.7767 12.5397 17.6439C12.4847 17.5112 12.4041 17.3906 12.3025 17.289C12.2009 17.1874 12.0803 17.1068 11.9476 17.0518C11.8148 16.9968 11.6726 16.9685 11.5289 16.9685C11.3852 16.9685 11.2429 16.9968 11.1102 17.0518C10.9775 17.1068 10.8568 17.1874 10.7552 17.289C10.562 17.4963 10.4569 17.7706 10.4619 18.0539C10.4669 18.3373 10.5817 18.6076 10.782 18.808C10.9824 19.0084 11.2528 19.1232 11.5362 19.1282C11.8195 19.1332 12.0937 19.028 12.3011 18.8348L12.3025 18.8363ZM15.1725 20.0773C15.28 20.1774 15.3662 20.2982 15.426 20.4324C15.4857 20.5665 15.5179 20.7114 15.5205 20.8582C15.5231 21.0051 15.4961 21.151 15.441 21.2871C15.386 21.4233 15.3042 21.5471 15.2003 21.6509C15.0964 21.7548 14.9727 21.8367 14.8365 21.8917C14.7003 21.9467 14.5545 21.9737 14.4076 21.9711C14.2608 21.9685 14.1159 21.9364 13.9818 21.8766C13.8476 21.8168 13.7268 21.7306 13.6267 21.6232C13.4335 21.4158 13.3283 21.1416 13.3333 20.8582C13.3383 20.5749 13.4531 20.3045 13.6535 20.1041C13.8539 19.9037 14.1243 19.7889 14.4076 19.7839C14.691 19.7789 14.9652 19.8841 15.1725 20.0773V20.0773ZM18.2671 18.8363C18.3687 18.7347 18.4493 18.6141 18.5043 18.4813C18.5593 18.3486 18.5876 18.2063 18.5876 18.0626C18.5876 17.919 18.5593 17.7767 18.5043 17.6439C18.4493 17.5112 18.3687 17.3906 18.2671 17.289C18.1655 17.1874 18.0449 17.1068 17.9122 17.0518C17.7794 16.9968 17.6372 16.9685 17.4935 16.9685C17.3498 16.9685 17.2075 16.9968 17.0748 17.0518C16.942 17.1068 16.8214 17.1874 16.7198 17.289C16.5266 17.4963 16.4215 17.7706 16.4264 18.0539C16.4314 18.3373 16.5462 18.6076 16.7466 18.808C16.947 19.0084 17.2174 19.1232 17.5007 19.1282C17.7841 19.1332 18.0583 19.028 18.2657 18.8348L18.2671 18.8363ZM21.054 14.1959C21.1615 14.296 21.2476 14.4167 21.3074 14.5509C21.3672 14.6851 21.3994 14.8299 21.4019 14.9768C21.4045 15.1236 21.3775 15.2695 21.3225 15.4057C21.2675 15.5419 21.1856 15.6656 21.0818 15.7695C20.9779 15.8733 20.8542 15.9552 20.718 16.0102C20.5818 16.0652 20.4359 16.0922 20.2891 16.0896C20.1422 16.087 19.9974 16.0549 19.8632 15.9951C19.729 15.9353 19.6083 15.8492 19.5082 15.7417C19.315 15.5344 19.2098 15.2601 19.2148 14.9768C19.2198 14.6934 19.3346 14.4231 19.535 14.2227C19.7354 14.0223 20.0057 13.9075 20.2891 13.9025C20.5724 13.8975 20.8467 14.0027 21.054 14.1959V14.1959ZM24.1486 18.794C24.253 18.693 24.3363 18.5723 24.3935 18.4388C24.4508 18.3054 24.4809 18.1618 24.4821 18.0166C24.4833 17.8714 24.4555 17.7274 24.4005 17.593C24.3454 17.4586 24.2641 17.3365 24.1614 17.2339C24.0587 17.1312 23.9365 17.0501 23.8021 16.9951C23.6676 16.9402 23.5236 16.9126 23.3783 16.9139C23.2331 16.9153 23.0896 16.9455 22.9562 17.0029C22.8228 17.0603 22.7021 17.1436 22.6013 17.2482C22.4081 17.4555 22.3029 17.7297 22.3079 18.0131C22.3129 18.2964 22.4277 18.5668 22.6281 18.7672C22.8285 18.9676 23.0988 19.0824 23.3822 19.0874C23.6655 19.0924 23.9398 18.9872 24.1471 18.794H24.1486ZM21.0336 20.1386C21.141 20.2387 21.2272 20.3594 21.287 20.4936C21.3468 20.6278 21.3789 20.7726 21.3815 20.9195C21.3841 21.0663 21.3571 21.2122 21.3021 21.3484C21.2471 21.4846 21.1652 21.6083 21.0613 21.7122C20.9575 21.816 20.8338 21.8979 20.6976 21.9529C20.5614 22.0079 20.4155 22.0349 20.2687 22.0323C20.1218 22.0298 19.977 21.9976 19.8428 21.9378C19.7086 21.8781 19.5879 21.7919 19.4877 21.6844C19.2945 21.4771 19.1894 21.2028 19.1944 20.9195C19.1994 20.6361 19.3142 20.3658 19.5145 20.1654C19.7149 19.965 19.9853 19.8502 20.2687 19.8452C20.552 19.8402 20.8262 19.9454 21.0336 20.1386ZM17.9609 24.5354C18.0683 24.4353 18.1545 24.3146 18.2143 24.1804C18.2741 24.0462 18.3062 23.9014 18.3088 23.7545C18.3114 23.6077 18.2844 23.4618 18.2294 23.3256C18.1744 23.1894 18.0925 23.0657 17.9886 22.9618C17.8848 22.858 17.7611 22.7761 17.6249 22.7211C17.4887 22.6661 17.3428 22.6391 17.1959 22.6417C17.0491 22.6443 16.9043 22.6764 16.7701 22.7362C16.6359 22.796 16.5152 22.8821 16.415 22.9896C16.2218 23.1969 16.1167 23.4712 16.1217 23.7545C16.1267 24.0379 16.2414 24.3082 16.4418 24.5086C16.6422 24.709 16.9126 24.8238 17.1959 24.8288C17.4793 24.8338 17.7535 24.7286 17.9609 24.5354V24.5354Z" fill="#4ECB71"/>
<path fill-rule="evenodd" clip-rule="evenodd" d="M32.0834 17.674C32.0834 25.7283 25.5544 32.2573 17.5 32.2573C9.44565 32.2573 2.91669 25.7283 2.91669 17.674C2.91669 9.6196 9.44565 3.09064 17.5 3.09064C25.5544 3.09064 32.0834 9.6196 32.0834 17.674ZM29.1667 17.674C29.1667 20.7682 27.9375 23.7356 25.7496 25.9235C23.5617 28.1115 20.5942 29.3406 17.5 29.3406C14.4058 29.3406 11.4384 28.1115 9.25044 25.9235C7.06252 23.7356 5.83335 20.7682 5.83335 17.674C5.83335 14.5798 7.06252 11.6123 9.25044 9.42439C11.4384 7.23647 14.4058 6.0073 17.5 6.0073C20.5942 6.0073 23.5617 7.23647 25.7496 9.42439C27.9375 11.6123 29.1667 14.5798 29.1667 17.674V17.674Z" fill="#4ECB71"/>
</svg>
