<svg width="35" height="36" viewBox="0 0 35 36" fill="none" xmlns="http://www.w3.org/2000/svg">
<path d="M23.6862 25.2021C23.0947 25.7937 22.422 26.298 21.6883 26.6998L23.0898 29.2577C24.5548 28.4544 25.832 27.3483 26.8362 26.0129L24.5029 24.2615C24.2536 24.5942 23.9807 24.9085 23.6862 25.2021V25.2021ZM26.2281 18.3902C26.3199 19.6428 26.1398 20.9004 25.7002 22.0769L28.4316 23.0992C29.0176 21.5303 29.2578 19.8534 29.136 18.1831L26.2281 18.3902V18.3902ZM28.4331 14.9369C27.8453 13.3717 26.93 11.9502 25.7483 10.7675L23.6862 12.8296C24.5722 13.7182 25.2592 14.7849 25.7016 15.9592L28.4331 14.9369V14.9369ZM16.5798 27.7162C16.5112 27.709 16.4427 27.6944 16.3741 27.6856C16.1454 27.6572 15.9178 27.6207 15.6916 27.5762C14.4056 27.3065 13.1981 26.7469 12.161 25.94C11.8619 25.7127 11.5779 25.4662 11.3108 25.2021C11.0416 24.9283 10.7902 24.6375 10.5583 24.3315C10.002 23.6108 9.56348 22.8065 9.25893 21.9485C9.1053 21.5199 8.98487 21.0802 8.89872 20.6331C8.88705 20.5704 8.88122 20.5048 8.87101 20.4421C8.79397 19.9715 8.75351 19.4956 8.74997 19.0187V19.0158C8.74997 16.6781 9.65997 14.4819 11.3137 12.8296C12.5958 11.543 14.2496 10.6916 16.0416 10.3956V14.6408L23.3333 8.80749L16.0416 2.97416V7.44978C13.4702 7.76267 11.0787 8.9312 9.25164 10.7675C8.16423 11.8473 7.30211 13.1324 6.7153 14.5481C6.1285 15.9638 5.8287 17.4819 5.8333 19.0144V19.0275C5.8333 19.3965 5.85372 19.7625 5.88726 20.1256C5.89747 20.2365 5.91789 20.3444 5.93101 20.4567C5.96164 20.7075 5.99518 20.9598 6.04185 21.2092C6.06955 21.355 6.10601 21.495 6.1381 21.6394C6.18476 21.8465 6.23289 22.0521 6.29122 22.2562C6.33789 22.4196 6.3933 22.5815 6.44726 22.7419C6.48518 22.8571 6.5158 22.9737 6.5581 23.0875L6.56976 23.0831C6.95961 24.125 7.49742 25.1053 8.16664 25.994L8.15643 26.0012C8.18705 26.0421 8.22789 26.0785 8.25851 26.1194C8.56622 26.516 8.88997 26.904 9.25164 27.2642C9.69003 27.6963 10.161 28.0942 10.6604 28.4542C11.0468 28.7342 11.4435 28.9967 11.8577 29.2256L11.8985 29.2533L11.9 29.2519C12.8766 29.7873 13.9259 30.1778 15.015 30.4112L15.0135 30.4185L15.0908 30.4317C15.3839 30.4929 15.6814 30.5352 15.9804 30.5746C16.081 30.5877 16.1816 30.6081 16.2823 30.6183C17.5159 30.7475 18.7623 30.6801 19.9748 30.4185L19.3564 27.5675C18.4444 27.7621 17.5074 27.8123 16.5798 27.7162V27.7162Z" fill="#4ECB71"/>
</svg>
