<svg width="35" height="36" viewBox="0 0 35 36" fill="none" xmlns="http://www.w3.org/2000/svg">
<path d="M9.85545 13.7222L7.79336 11.6601C6.61169 12.8428 5.69633 14.2643 5.10857 15.8295L7.84003 16.8517C8.28154 15.6771 8.96865 14.6101 9.85545 13.7222ZM27.7084 19.907C27.713 18.3745 27.4133 16.8563 26.8265 15.4406C26.2397 14.0249 25.3775 12.7399 24.29 11.6601C22.463 9.82379 20.0715 8.65525 17.5 8.34237V3.86675L10.2084 9.70008L17.5 15.5334V11.2882C19.2921 11.5842 20.9459 12.4355 22.2279 13.7222C23.0434 14.5324 23.6899 15.4964 24.13 16.5583C24.57 17.6202 24.795 18.7589 24.7917 19.9084V19.9113C24.7917 20.3926 24.7436 20.8665 24.6663 21.3361C24.6561 21.3988 24.6502 21.4645 24.6386 21.5272C24.3798 22.872 23.8116 24.1381 22.979 25.2255C22.7457 25.5303 22.4963 25.8263 22.2265 26.0961C21.897 26.422 21.542 26.7209 21.1648 26.9901C20.1759 27.7141 19.0438 28.2188 17.8442 28.4703C17.6371 28.514 17.4286 28.5432 17.2171 28.5709C17.1267 28.584 17.0392 28.6015 16.9488 28.6103C16.024 28.7051 15.09 28.6544 14.1809 28.4601L13.5625 31.3111C14.7762 31.5713 16.0234 31.6382 17.2579 31.5095C17.3586 31.4992 17.4592 31.4788 17.5598 31.4657C17.8588 31.4278 18.1563 31.384 18.4494 31.3228L18.5267 31.3097L18.5252 31.3024C19.6143 31.069 20.6636 30.6784 21.6402 30.143L21.6417 30.1445L21.6825 30.1167C22.1978 29.8292 22.6902 29.5026 23.1554 29.1397C23.5492 28.8349 23.9313 28.5126 24.2886 28.1553C24.6502 27.7951 24.974 27.4072 25.2817 27.0105C25.3123 26.9697 25.3532 26.9332 25.3838 26.8924L25.375 26.8865C26.0442 25.9978 26.5811 25.0169 26.969 23.9742L26.9807 23.9786C27.0229 23.8649 27.0536 23.7482 27.0915 23.633C27.1454 23.4726 27.2009 23.3107 27.2475 23.1474C27.3059 22.9432 27.354 22.7376 27.4007 22.5305C27.4327 22.3861 27.4707 22.2461 27.4969 22.1003C27.5436 21.8509 27.5786 21.5986 27.6077 21.3478C27.6223 21.237 27.6413 21.129 27.6515 21.0167C27.685 20.6536 27.7054 20.2876 27.7054 19.9186C27.7084 19.9157 27.7084 19.9128 27.7084 19.907V19.907ZM9.03732 25.154L6.70399 26.9055C7.70749 28.2415 8.98481 29.3478 10.4504 30.1503L11.8519 27.5924C10.7501 26.9903 9.79029 26.1588 9.03732 25.154V25.154ZM7.2917 19.9084C7.2917 19.697 7.29899 19.4899 7.31357 19.2828L4.40566 19.0742C4.28364 20.745 4.52391 22.4224 5.11003 23.9917L7.84149 22.9695C7.47614 21.9903 7.28991 20.9535 7.2917 19.9084V19.9084Z" fill="#4ECB71"/>
</svg>
