<svg width="35" height="35" viewBox="0 0 35 35" fill="none" xmlns="http://www.w3.org/2000/svg">
<path d="M29.1667 20.4167C29.0325 20.51 26.25 23.4544 26.25 25.5208C26.25 27.6996 27.634 29.0908 29.1667 29.1667C30.4879 29.2308 32.0833 27.8673 32.0833 25.5208C32.0833 23.3333 29.3008 20.51 29.1667 20.4167ZM13.9796 29.1667C14.5308 29.7179 15.2629 30.0213 16.0417 30.0213C16.8204 30.0213 17.5525 29.7179 18.1038 29.1667L28.3121 18.9583L27.2811 17.9273L16.0417 6.68792L12.6977 3.34396L10.6356 5.40605L13.9796 8.75001L5.83334 16.8963C5.28209 17.4475 4.97876 18.1796 4.97876 18.9583C4.97876 19.7371 5.28209 20.4692 5.83334 21.0204L13.9796 29.1667ZM16.0417 10.8121L24.1879 18.9583H7.89543L16.0417 10.8121Z" fill="#4ECB71"/>
</svg>
