<svg width="35" height="36" viewBox="0 0 35 36" fill="none" xmlns="http://www.w3.org/2000/svg">
<path d="M17.5 10.5351C9.45002 10.5351 2.91669 13.8018 2.91669 17.8268C2.91669 21.0934 7.20419 23.8497 13.125 24.783V29.4934L18.9584 23.6601L13.125 17.8268V21.808C8.53127 20.9914 5.83335 19.0372 5.83335 17.8268C5.83335 16.2809 10.2667 13.4518 17.5 13.4518C24.7334 13.4518 29.1667 16.2809 29.1667 17.8268C29.1667 18.8914 27.0375 20.583 23.3334 21.5164V24.5059C28.4813 23.383 32.0834 20.8164 32.0834 17.8268C32.0834 13.8018 25.55 10.5351 17.5 10.5351V10.5351Z" fill="#4ECB71"/>
</svg>
