<svg width="35" height="35" viewBox="0 0 35 35" fill="none" xmlns="http://www.w3.org/2000/svg">
<path d="M22.1944 4.69437C22.0926 4.79597 22.0118 4.91667 21.9566 5.04955C21.9015 5.18243 21.8731 5.32488 21.8731 5.46875C21.8731 5.61262 21.9015 5.75507 21.9566 5.88795C22.0118 6.02083 22.0926 6.14153 22.1944 6.24313L26.891 10.9375H21.781C18.5697 10.9375 15.4263 10.9375 12.5366 11.8038C9.55067 12.7006 6.88192 14.5031 4.5588 17.9878C4.40812 18.2292 4.35741 18.5197 4.41745 18.7979C4.47749 19.076 4.64355 19.3197 4.88038 19.4774C5.11721 19.6351 5.40616 19.6943 5.68592 19.6425C5.96568 19.5906 6.21423 19.4318 6.3788 19.1997C8.43067 16.1219 10.6838 14.6431 13.1688 13.8994C15.7172 13.1338 18.5566 13.125 21.875 13.125H26.891L22.1966 17.8194C22.0949 17.9209 22.0142 18.0415 21.9591 18.1742C21.904 18.307 21.8756 18.4493 21.8755 18.593C21.8754 18.7367 21.9036 18.879 21.9585 19.0118C22.0134 19.1446 22.094 19.2653 22.1955 19.367C22.2971 19.4687 22.4177 19.5494 22.5504 19.6045C22.6831 19.6596 22.8254 19.688 22.9691 19.6881C23.1128 19.6882 23.2552 19.66 23.388 19.6051C23.5208 19.5502 23.6415 19.4697 23.7432 19.3681L30.3057 12.8056C30.4075 12.704 30.4883 12.5833 30.5435 12.4504C30.5986 12.3176 30.627 12.1751 30.627 12.0313C30.627 11.8874 30.5986 11.7449 30.5435 11.6121C30.4883 11.4792 30.4075 11.3585 30.3057 11.2569L23.7432 4.69437C23.5381 4.48933 23.2599 4.37414 22.9699 4.37414C22.6799 4.37414 22.4017 4.48933 22.1966 4.69437H22.1944ZM17.5 32.8125C18.6604 32.8125 19.7732 32.3516 20.5936 31.5311C21.4141 30.7106 21.875 29.5978 21.875 28.4375C21.875 27.2772 21.4141 26.1644 20.5936 25.3439C19.7732 24.5234 18.6604 24.0625 17.5 24.0625C16.3397 24.0625 15.2269 24.5234 14.4065 25.3439C13.586 26.1644 13.125 27.2772 13.125 28.4375C13.125 29.5978 13.586 30.7106 14.4065 31.5311C15.2269 32.3516 16.3397 32.8125 17.5 32.8125V32.8125Z" fill="#4ECB71"/>
</svg>
